<svg fill="none" height="24" viewBox="0 0 24 24" width="24" xmlns="http://www.w3.org/2000/svg"><g fill="#1c274c"><path d="m19.7165 20.3624c1.4265-.7778 2.2835-1.7751 2.2835-2.8624 0-1.1525-.9628-2.2039-2.5463-3-1.8311-.9206-4.492-1.5-7.4537-1.5-2.96167 0-5.62262.5794-7.45369 1.5-1.58346.7961-2.54631 1.8475-2.54631 3s.96285 2.2039 2.54631 3c1.83107.9206 4.49202 1.5 7.45369 1.5 3.1066 0 5.8823-.6375 7.7165-1.6376z" opacity=".5"/><path clip-rule="evenodd" d="m5 8.51464c0-3.59794 3.13401-6.51464 7-6.51464 3.866 0 7 2.9167 7 6.51464 0 3.56976-2.2342 7.73526-5.7199 9.22496-.8126.3472-1.7476.3472-2.5602 0-3.48574-1.4897-5.7199-5.6552-5.7199-9.22496zm7 2.48536c1.1046 0 2-.8954 2-2 0-1.10457-.8954-2-2-2s-2 .89543-2 2c0 1.1046.8954 2 2 2z" fill-rule="evenodd"/></g></svg>